<svg width="99" height="409" viewBox="0 0 99 409" fill="none" xmlns="http://www.w3.org/2000/svg">
<g opacity="0.1">
<ellipse cx="3.5" cy="3.52586" rx="3.5" ry="3.52586" fill="black"/>
<ellipse cx="3.5" cy="24.681" rx="3.5" ry="3.52586" fill="black"/>
<ellipse cx="3.5" cy="45.8362" rx="3.5" ry="3.52586" fill="black"/>
<ellipse cx="3.5" cy="66.9914" rx="3.5" ry="3.52586" fill="black"/>
<ellipse cx="3.5" cy="88.1466" rx="3.5" ry="3.52586" fill="black"/>
<ellipse cx="3.5" cy="109.302" rx="3.5" ry="3.52586" fill="black"/>
<ellipse cx="3.5" cy="130.457" rx="3.5" ry="3.52586" fill="black"/>
<ellipse cx="3.5" cy="151.612" rx="3.5" ry="3.52586" fill="black"/>
<ellipse cx="3.5" cy="172.767" rx="3.5" ry="3.52586" fill="black"/>
<ellipse cx="3.5" cy="193.922" rx="3.5" ry="3.52586" fill="black"/>
<ellipse cx="3.5" cy="215.078" rx="3.5" ry="3.52586" fill="black"/>
<ellipse cx="3.5" cy="236.233" rx="3.5" ry="3.52586" fill="black"/>
<ellipse cx="3.5" cy="257.388" rx="3.5" ry="3.52586" fill="black"/>
<ellipse cx="3.5" cy="278.543" rx="3.5" ry="3.52586" fill="black"/>
<ellipse cx="3.5" cy="299.698" rx="3.5" ry="3.52586" fill="black"/>
<ellipse cx="3.5" cy="320.853" rx="3.5" ry="3.52586" fill="black"/>
<ellipse cx="3.5" cy="342.009" rx="3.5" ry="3.52586" fill="black"/>
<ellipse cx="3.5" cy="363.164" rx="3.5" ry="3.52586" fill="black"/>
<ellipse cx="3.5" cy="384.319" rx="3.5" ry="3.52586" fill="black"/>
<ellipse cx="3.5" cy="405.474" rx="3.5" ry="3.52586" fill="black"/>
<ellipse cx="22.5" cy="3.52586" rx="3.5" ry="3.52586" fill="black"/>
<ellipse cx="22.5" cy="24.681" rx="3.5" ry="3.52586" fill="black"/>
<ellipse cx="22.5" cy="45.8362" rx="3.5" ry="3.52586" fill="black"/>
<ellipse cx="22.5" cy="66.9914" rx="3.5" ry="3.52586" fill="black"/>
<ellipse cx="22.5" cy="88.1466" rx="3.5" ry="3.52586" fill="black"/>
<ellipse cx="22.5" cy="109.302" rx="3.5" ry="3.52586" fill="black"/>
<ellipse cx="22.5" cy="130.457" rx="3.5" ry="3.52586" fill="black"/>
<ellipse cx="22.5" cy="151.612" rx="3.5" ry="3.52586" fill="black"/>
<ellipse cx="22.5" cy="172.767" rx="3.5" ry="3.52586" fill="black"/>
<ellipse cx="22.5" cy="193.922" rx="3.5" ry="3.52586" fill="black"/>
<ellipse cx="22.5" cy="215.078" rx="3.5" ry="3.52586" fill="black"/>
<ellipse cx="22.5" cy="236.233" rx="3.5" ry="3.52586" fill="black"/>
<ellipse cx="22.5" cy="257.388" rx="3.5" ry="3.52586" fill="black"/>
<ellipse cx="22.5" cy="278.543" rx="3.5" ry="3.52586" fill="black"/>
<ellipse cx="22.5" cy="299.698" rx="3.5" ry="3.52586" fill="black"/>
<ellipse cx="22.5" cy="320.853" rx="3.5" ry="3.52586" fill="black"/>
<ellipse cx="22.5" cy="342.009" rx="3.5" ry="3.52586" fill="black"/>
<ellipse cx="22.5" cy="363.164" rx="3.5" ry="3.52586" fill="black"/>
<ellipse cx="22.5" cy="384.319" rx="3.5" ry="3.52586" fill="black"/>
<ellipse cx="22.5" cy="405.474" rx="3.5" ry="3.52586" fill="black"/>
<ellipse cx="41.5" cy="3.52586" rx="3.5" ry="3.52586" fill="black"/>
<ellipse cx="41.5" cy="24.681" rx="3.5" ry="3.52586" fill="black"/>
<ellipse cx="41.5" cy="45.8362" rx="3.5" ry="3.52586" fill="black"/>
<ellipse cx="41.5" cy="66.9914" rx="3.5" ry="3.52586" fill="black"/>
<ellipse cx="41.5" cy="88.1466" rx="3.5" ry="3.52586" fill="black"/>
<ellipse cx="41.5" cy="109.302" rx="3.5" ry="3.52586" fill="black"/>
<ellipse cx="41.5" cy="130.457" rx="3.5" ry="3.52586" fill="black"/>
<ellipse cx="41.5" cy="151.612" rx="3.5" ry="3.52586" fill="black"/>
<ellipse cx="41.5" cy="172.767" rx="3.5" ry="3.52586" fill="black"/>
<ellipse cx="41.5" cy="193.922" rx="3.5" ry="3.52586" fill="black"/>
<ellipse cx="41.5" cy="215.078" rx="3.5" ry="3.52586" fill="black"/>
<ellipse cx="41.5" cy="236.233" rx="3.5" ry="3.52586" fill="black"/>
<ellipse cx="41.5" cy="257.388" rx="3.5" ry="3.52586" fill="black"/>
<ellipse cx="41.5" cy="278.543" rx="3.5" ry="3.52586" fill="black"/>
<ellipse cx="41.5" cy="299.698" rx="3.5" ry="3.52586" fill="black"/>
<ellipse cx="41.5" cy="320.853" rx="3.5" ry="3.52586" fill="black"/>
<ellipse cx="41.5" cy="342.009" rx="3.5" ry="3.52586" fill="black"/>
<ellipse cx="41.5" cy="363.164" rx="3.5" ry="3.52586" fill="black"/>
<ellipse cx="41.5" cy="384.319" rx="3.5" ry="3.52586" fill="black"/>
<ellipse cx="41.5" cy="405.474" rx="3.5" ry="3.52586" fill="black"/>
<ellipse cx="60.5" cy="3.52586" rx="3.5" ry="3.52586" fill="black"/>
<ellipse cx="60.5" cy="24.681" rx="3.5" ry="3.52586" fill="black"/>
<ellipse cx="60.5" cy="45.8362" rx="3.5" ry="3.52586" fill="black"/>
<ellipse cx="60.5" cy="66.9914" rx="3.5" ry="3.52586" fill="black"/>
<ellipse cx="60.5" cy="88.1466" rx="3.5" ry="3.52586" fill="black"/>
<ellipse cx="60.5" cy="109.302" rx="3.5" ry="3.52586" fill="black"/>
<ellipse cx="60.5" cy="130.457" rx="3.5" ry="3.52586" fill="black"/>
<ellipse cx="60.5" cy="151.612" rx="3.5" ry="3.52586" fill="black"/>
<ellipse cx="60.5" cy="172.767" rx="3.5" ry="3.52586" fill="black"/>
<ellipse cx="60.5" cy="193.922" rx="3.5" ry="3.52586" fill="black"/>
<ellipse cx="60.5" cy="215.078" rx="3.5" ry="3.52586" fill="black"/>
<ellipse cx="60.5" cy="236.233" rx="3.5" ry="3.52586" fill="black"/>
<ellipse cx="60.5" cy="257.388" rx="3.5" ry="3.52586" fill="black"/>
<ellipse cx="60.5" cy="278.543" rx="3.5" ry="3.52586" fill="black"/>
<ellipse cx="60.5" cy="299.698" rx="3.5" ry="3.52586" fill="black"/>
<ellipse cx="60.5" cy="320.853" rx="3.5" ry="3.52586" fill="black"/>
<ellipse cx="60.5" cy="342.009" rx="3.5" ry="3.52586" fill="black"/>
<ellipse cx="60.5" cy="363.164" rx="3.5" ry="3.52586" fill="black"/>
<ellipse cx="60.5" cy="384.319" rx="3.5" ry="3.52586" fill="black"/>
<ellipse cx="60.5" cy="405.474" rx="3.5" ry="3.52586" fill="black"/>
<ellipse cx="79.5" cy="3.52586" rx="3.5" ry="3.52586" fill="black"/>
<ellipse cx="79.5" cy="24.681" rx="3.5" ry="3.52586" fill="black"/>
<ellipse cx="79.5" cy="45.8362" rx="3.5" ry="3.52586" fill="black"/>
<ellipse cx="79.5" cy="66.9914" rx="3.5" ry="3.52586" fill="black"/>
<ellipse cx="79.5" cy="88.1466" rx="3.5" ry="3.52586" fill="black"/>
<ellipse cx="79.5" cy="109.302" rx="3.5" ry="3.52586" fill="black"/>
<ellipse cx="79.5" cy="130.457" rx="3.5" ry="3.52586" fill="black"/>
<ellipse cx="79.5" cy="151.612" rx="3.5" ry="3.52586" fill="black"/>
<ellipse cx="79.5" cy="172.767" rx="3.5" ry="3.52586" fill="black"/>
<ellipse cx="79.5" cy="193.922" rx="3.5" ry="3.52586" fill="black"/>
<ellipse cx="79.5" cy="215.078" rx="3.5" ry="3.52586" fill="black"/>
<ellipse cx="79.5" cy="236.233" rx="3.5" ry="3.52586" fill="black"/>
<ellipse cx="79.5" cy="257.388" rx="3.5" ry="3.52586" fill="black"/>
<ellipse cx="79.5" cy="278.543" rx="3.5" ry="3.52586" fill="black"/>
<ellipse cx="79.5" cy="299.698" rx="3.5" ry="3.52586" fill="black"/>
<ellipse cx="79.5" cy="320.853" rx="3.5" ry="3.52586" fill="black"/>
<ellipse cx="79.5" cy="342.009" rx="3.5" ry="3.52586" fill="black"/>
<ellipse cx="79.5" cy="363.164" rx="3.5" ry="3.52586" fill="black"/>
<ellipse cx="79.5" cy="384.319" rx="3.5" ry="3.52586" fill="black"/>
<ellipse cx="79.5" cy="405.474" rx="3.5" ry="3.52586" fill="black"/>
<ellipse cx="98.5" cy="3.52586" rx="3.5" ry="3.52586" fill="black"/>
<ellipse cx="98.5" cy="24.681" rx="3.5" ry="3.52586" fill="black"/>
<ellipse cx="98.5" cy="45.8362" rx="3.5" ry="3.52586" fill="black"/>
<ellipse cx="98.5" cy="66.9914" rx="3.5" ry="3.52586" fill="black"/>
<ellipse cx="98.5" cy="88.1466" rx="3.5" ry="3.52586" fill="black"/>
<ellipse cx="98.5" cy="109.302" rx="3.5" ry="3.52586" fill="black"/>
<ellipse cx="98.5" cy="130.457" rx="3.5" ry="3.52586" fill="black"/>
<ellipse cx="98.5" cy="151.612" rx="3.5" ry="3.52586" fill="black"/>
<ellipse cx="98.5" cy="172.767" rx="3.5" ry="3.52586" fill="black"/>
<ellipse cx="98.5" cy="193.922" rx="3.5" ry="3.52586" fill="black"/>
<ellipse cx="98.5" cy="215.078" rx="3.5" ry="3.52586" fill="black"/>
<ellipse cx="98.5" cy="236.233" rx="3.5" ry="3.52586" fill="black"/>
<ellipse cx="98.5" cy="257.388" rx="3.5" ry="3.52586" fill="black"/>
<ellipse cx="98.5" cy="278.543" rx="3.5" ry="3.52586" fill="black"/>
<ellipse cx="98.5" cy="299.698" rx="3.5" ry="3.52586" fill="black"/>
<ellipse cx="98.5" cy="320.853" rx="3.5" ry="3.52586" fill="black"/>
<ellipse cx="98.5" cy="342.009" rx="3.5" ry="3.52586" fill="black"/>
<ellipse cx="98.5" cy="363.164" rx="3.5" ry="3.52586" fill="black"/>
<ellipse cx="98.5" cy="384.319" rx="3.5" ry="3.52586" fill="black"/>
<ellipse cx="98.5" cy="405.474" rx="3.5" ry="3.52586" fill="black"/>
</g>
</svg>
