<svg width="130" height="49" viewBox="0 0 130 49" fill="none" xmlns="http://www.w3.org/2000/svg">
<path d="M55.5781 29.9697C55.0124 30.7074 54.2282 31.266 53.2256 31.6455C52.223 32.0251 51.0843 32.2148 49.8096 32.2148C48.499 32.2148 47.3389 31.9176 46.3291 31.3232C45.3193 30.7288 44.5387 29.8802 43.9873 28.7773C43.443 27.6673 43.1602 26.3747 43.1387 24.8994V23.6748C43.1387 21.3115 43.7044 19.4674 44.8359 18.1426C45.9674 16.8105 47.5465 16.1445 49.5732 16.1445C51.3135 16.1445 52.6956 16.5742 53.7197 17.4336C54.7438 18.293 55.3597 19.5319 55.5674 21.1504H52.9033C52.6025 19.2669 51.5104 18.3252 49.627 18.3252C48.4095 18.3252 47.4821 18.7656 46.8447 19.6465C46.2145 20.5202 45.8887 21.8057 45.8672 23.5029V24.7061C45.8672 26.3962 46.2217 27.7103 46.9307 28.6484C47.6468 29.5794 48.6387 30.0449 49.9062 30.0449C51.2956 30.0449 52.2839 29.7298 52.8711 29.0996V26.0381H49.6484V23.9756H55.5781V29.9697ZM64.3975 22.7617C64.0537 22.7044 63.6992 22.6758 63.334 22.6758C62.138 22.6758 61.3324 23.1341 60.917 24.0508V32H58.3066V20.377H60.7988L60.8633 21.6768C61.4935 20.667 62.3672 20.1621 63.4844 20.1621C63.8568 20.1621 64.1647 20.2122 64.4082 20.3125L64.3975 22.7617ZM72.6689 32C72.5544 31.778 72.4541 31.4163 72.3682 30.915C71.5374 31.7816 70.5205 32.2148 69.3174 32.2148C68.1501 32.2148 67.1976 31.8818 66.46 31.2158C65.7223 30.5498 65.3535 29.7262 65.3535 28.7451C65.3535 27.5062 65.8118 26.5573 66.7285 25.8984C67.6523 25.2324 68.9701 24.8994 70.6816 24.8994H72.2822V24.1367C72.2822 23.5352 72.1139 23.0553 71.7773 22.6973C71.4408 22.332 70.9287 22.1494 70.2412 22.1494C69.6468 22.1494 69.1598 22.2998 68.7803 22.6006C68.4007 22.8942 68.2109 23.2702 68.2109 23.7285H65.6006C65.6006 23.0911 65.8118 22.4967 66.2344 21.9453C66.6569 21.3867 67.2298 20.9499 67.9531 20.6348C68.6836 20.3197 69.4964 20.1621 70.3916 20.1621C71.7523 20.1621 72.8372 20.5059 73.6465 21.1934C74.4557 21.8737 74.8711 22.8333 74.8926 24.0723V29.3145C74.8926 30.36 75.0394 31.1943 75.333 31.8174V32H72.6689ZM69.8008 30.1201C70.3164 30.1201 70.7998 29.9948 71.251 29.7441C71.7093 29.4935 72.0531 29.1569 72.2822 28.7344V26.543H70.875C69.9082 26.543 69.1813 26.7113 68.6943 27.0479C68.2074 27.3844 67.9639 27.8607 67.9639 28.4766C67.9639 28.9779 68.1286 29.3789 68.458 29.6797C68.7946 29.9733 69.2422 30.1201 69.8008 30.1201ZM81.5527 28.6914L84.0127 20.377H86.709L82.6807 32H80.4141L76.3535 20.377H79.0605L81.5527 28.6914ZM91.124 32H88.5137V20.377H91.124V32ZM88.3525 17.3584C88.3525 16.9574 88.4779 16.6243 88.7285 16.3594C88.9863 16.0944 89.3516 15.9619 89.8242 15.9619C90.2969 15.9619 90.6621 16.0944 90.9199 16.3594C91.1777 16.6243 91.3066 16.9574 91.3066 17.3584C91.3066 17.7523 91.1777 18.0817 90.9199 18.3467C90.6621 18.6045 90.2969 18.7334 89.8242 18.7334C89.3516 18.7334 88.9863 18.6045 88.7285 18.3467C88.4779 18.0817 88.3525 17.7523 88.3525 17.3584ZM96.7529 32H94.1426V20.377H96.7529V32ZM93.9814 17.3584C93.9814 16.9574 94.1068 16.6243 94.3574 16.3594C94.6152 16.0944 94.9805 15.9619 95.4531 15.9619C95.9258 15.9619 96.291 16.0944 96.5488 16.3594C96.8066 16.6243 96.9355 16.9574 96.9355 17.3584C96.9355 17.7523 96.8066 18.0817 96.5488 18.3467C96.291 18.6045 95.9258 18.7334 95.4531 18.7334C94.9805 18.7334 94.6152 18.6045 94.3574 18.3467C94.1068 18.0817 93.9814 17.7523 93.9814 17.3584ZM101.232 29.25C101.719 29.25 102.095 29.3896 102.36 29.6689C102.625 29.9411 102.758 30.2848 102.758 30.7002C102.758 31.1084 102.625 31.4486 102.36 31.7207C102.095 31.9857 101.719 32.1182 101.232 32.1182C100.767 32.1182 100.398 31.9857 100.126 31.7207C99.8538 31.4557 99.7178 31.1156 99.7178 30.7002C99.7178 30.2848 99.8503 29.9411 100.115 29.6689C100.38 29.3896 100.753 29.25 101.232 29.25Z" fill="#FF7008"/>
<path d="M108.172 20.377L108.247 21.7197C109.106 20.6813 110.234 20.1621 111.631 20.1621C114.051 20.1621 115.283 21.5479 115.326 24.3193V32H112.716V24.4697C112.716 23.7321 112.555 23.1878 112.232 22.8369C111.917 22.4788 111.398 22.2998 110.675 22.2998C109.622 22.2998 108.838 22.776 108.322 23.7285V32H105.712V20.377H108.172ZM117.539 26.1025C117.539 24.2979 117.962 22.8584 118.807 21.7842C119.659 20.7028 120.787 20.1621 122.19 20.1621C123.515 20.1621 124.557 20.624 125.316 21.5479L125.435 20.377H127.787V31.6455C127.787 33.1709 127.311 34.374 126.358 35.2549C125.413 36.1357 124.135 36.5762 122.523 36.5762C121.671 36.5762 120.837 36.3971 120.021 36.0391C119.211 35.6882 118.595 35.2262 118.173 34.6533L119.408 33.085C120.21 34.0374 121.199 34.5137 122.373 34.5137C123.24 34.5137 123.924 34.2773 124.425 33.8047C124.926 33.3392 125.177 32.6517 125.177 31.7422V30.958C124.425 31.7959 123.422 32.2148 122.169 32.2148C120.808 32.2148 119.695 31.6742 118.828 30.5928C117.969 29.5114 117.539 28.0146 117.539 26.1025ZM120.139 26.3281C120.139 27.4954 120.375 28.4157 120.848 29.0889C121.327 29.7549 121.99 30.0879 122.835 30.0879C123.888 30.0879 124.668 29.6367 125.177 28.7344V23.6211C124.683 22.7402 123.909 22.2998 122.856 22.2998C121.997 22.2998 121.327 22.64 120.848 23.3203C120.375 24.0007 120.139 25.0033 120.139 26.3281Z" fill="#343434"/>
<rect x="1" y="1" width="21.25" height="38" rx="3" stroke="#FF7008" stroke-width="2"/>
<rect x="7.75" y="9" width="23.25" height="40" rx="4" fill="#FF7008" fill-opacity="0.3"/>
</svg>
